<svg width="16" height="16" viewBox="0 0 16 16" fill="none" xmlns="http://www.w3.org/2000/svg">
<path d="M6.5 5V7.25M9.5 5V7.25M8 14.75V11M8 14.75C11.7279 14.75 14.75 11.7279 14.75 8C14.75 4.27208 11.7279 1.25 8 1.25C4.27208 1.25 1.25 4.27208 1.25 8C1.25 11.7279 4.27208 14.75 8 14.75ZM5 7.25H11V8.6C11 9.44008 11 9.86012 10.8365 10.181C10.6927 10.4632 10.4632 10.6927 10.181 10.8365C9.86012 11 9.44008 11 8.6 11H7.4C6.55992 11 6.13988 11 5.81901 10.8365C5.53677 10.6927 5.3073 10.4632 5.16349 10.181C5 9.86012 5 9.44008 5 8.6V7.25Z" stroke="#64748B" stroke-linecap="round" stroke-linejoin="round"/>
</svg>
