<svg width="11" height="15" viewBox="0 0 11 15" fill="none" xmlns="http://www.w3.org/2000/svg">
<path fill-rule="evenodd" clip-rule="evenodd" d="M7.40757 11.5273C7.40744 11.8625 7.13553 12.1343 6.80024 12.1341L2.08225 12.1323L0.14234 4.39704C0.060779 4.07182 0.258304 3.74206 0.583525 3.6605C0.908746 3.57894 1.23851 3.77646 1.32007 4.10168L3.02964 10.9185L6.8007 10.9199C7.13599 10.9201 7.4077 11.192 7.40757 11.5273Z" fill="#97A4BA"/>
<path fill-rule="evenodd" clip-rule="evenodd" d="M3.01194 3.66035C3.33722 3.57903 3.66683 3.7768 3.74815 4.10208L4.84739 8.49903L7.75262 8.49903L9.75077 11.8293C9.92327 12.1168 9.83004 12.4897 9.54253 12.6622C9.25502 12.8347 8.8821 12.7415 8.7096 12.454L7.06515 9.71323L3.89937 9.71323L2.57021 4.39657C2.48889 4.07129 2.68665 3.74167 3.01194 3.66035Z" fill="#97A4BA"/>
<path d="M5.58824 1.51775C5.58824 2.35598 4.90872 3.0355 4.07049 3.0355C3.23225 3.0355 2.55273 2.35598 2.55273 1.51775C2.55273 0.67952 3.23225 0 4.07049 0C4.90872 0 5.58824 0.67952 5.58824 1.51775Z" fill="#97A4BA"/>
</svg>
