<svg width="16" height="14" viewBox="0 0 16 14" fill="none" xmlns="http://www.w3.org/2000/svg">
<path d="M1.25 4.75H6.125M14.75 4.75H6.125M6.125 4.75L9.875 1M9.875 1H12.35C13.1351 1 13.5533 1 13.8666 1.13343M9.875 1H3.65C2.80992 1 2.38988 1 2.06901 1.16349C1.78677 1.3073 1.5573 1.53677 1.41349 1.81901C1.25 2.13988 1.25 2.55992 1.25 3.4V10.6C1.25 11.4401 1.25 11.8601 1.41349 12.181C1.5573 12.4632 1.78677 12.6927 2.06901 12.8365C2.38988 13 2.80992 13 3.65 13H12.35C13.1901 13 13.6101 13 13.931 12.8365C14.2132 12.6927 14.4427 12.4632 14.5865 12.181C14.75 11.8601 14.75 11.4401 14.75 10.6V3.4C14.75 2.55992 14.75 2.13988 14.5865 1.81901C14.4427 1.53677 14.2132 1.3073 13.931 1.16349C13.91 1.15278 13.8885 1.14278 13.8666 1.13343M5.75 1L2 4.75M10.25 4.75011L13.8666 1.13343M10.25 8.875L6.5 11.125V6.625L10.25 8.875Z" stroke="#97A4BA" stroke-linejoin="round"/>
</svg>
