<svg width="14" height="14" viewBox="0 0 14 14" fill="none" xmlns="http://www.w3.org/2000/svg">
<path d="M3.25 7C4.24456 7 5.19839 7.39509 5.90165 8.09835C6.60491 8.80161 7 9.75544 7 10.75M3.25 4C5.04021 4 6.7571 4.71116 8.02297 5.97703C9.28884 7.2429 10 8.95979 10 10.75M3.625 10.375H3.6325M3.4 13H10.6C11.4401 13 11.8601 13 12.181 12.8365C12.4632 12.6927 12.6927 12.4632 12.8365 12.181C13 11.8601 13 11.4401 13 10.6V3.4C13 2.55992 13 2.13988 12.8365 1.81901C12.6927 1.53677 12.4632 1.3073 12.181 1.16349C11.8601 1 11.4401 1 10.6 1H3.4C2.55992 1 2.13988 1 1.81901 1.16349C1.53677 1.3073 1.3073 1.53677 1.16349 1.81901C1 2.13988 1 2.55992 1 3.4V10.6C1 11.4401 1 11.8601 1.16349 12.181C1.3073 12.4632 1.53677 12.6927 1.81901 12.8365C2.13988 13 2.55992 13 3.4 13ZM4 10.375C4 10.5821 3.83211 10.75 3.625 10.75C3.41789 10.75 3.25 10.5821 3.25 10.375C3.25 10.1679 3.41789 10 3.625 10C3.83211 10 4 10.1679 4 10.375Z" stroke="#64748B" stroke-linecap="round" stroke-linejoin="round"/>
</svg>
