<svg width="346" height="199" viewBox="0 0 346 199" fill="none" xmlns="http://www.w3.org/2000/svg">
<path d="M143.66 17.4601C129.586 5.82002 110.019 0 84.9602 0C64.1142 0 47.1377 3.61993 34.0309 10.8599C22.2032 16.867 12.3192 26.1018 5.52368 37.4947L32.3926 60.338C37.3506 53.126 43.7204 46.9951 51.1165 42.3162C59.9428 37.2627 70.0256 34.8272 80.1855 35.2947C93.4483 35.2947 103.013 38.4153 108.88 44.6567C114.747 50.898 117.696 59.9635 117.727 71.8532V84.3516H84.2579C28.086 84.3516 0 103.481 0 141.741C0 159.684 5.64852 173.727 16.9453 183.869C28.2421 194.012 43.4397 199.036 62.5382 198.942C75.6115 199.39 88.5306 196.006 99.7053 189.206C109.603 182.895 116.808 173.138 119.927 161.822H121.753C122.433 170.945 126.429 179.504 132.987 185.882C134.056 186.878 135.216 187.771 136.451 188.55L164.818 150.541V69.5127C164.818 46.4822 157.765 29.1314 143.66 17.4601ZM117.727 136.825C117.839 141.074 116.867 145.28 114.901 149.048C112.935 152.816 110.041 156.02 106.493 158.358C98.1922 163.876 88.3667 166.643 78.4067 166.269C70.2613 166.722 62.1733 164.663 55.2358 160.371C52.462 158.459 50.226 155.866 48.7423 152.842C47.2587 149.817 46.5772 146.462 46.7632 143.098V135.749C46.7632 119.553 59.636 111.454 85.3815 111.454H117.774L117.727 136.825ZM237.046 45.1248L222.347 92.7305L153.349 0H203.389L237.046 45.1248ZM272.808 93.0114L247.718 126.761L200.908 189.861H150.354L222.02 93.854L222.581 93.105L247.671 59.4486L292.001 0.0936399H342.04L272.808 93.105V93.0114ZM261.34 144.502L276.038 96.8966L345.036 189.861H294.996L261.34 144.502Z" fill="#F4F1EC"/>
</svg>
