<svg width="548" height="122" viewBox="0 0 548 122" fill="none" xmlns="http://www.w3.org/2000/svg">
<path d="M500.779 56.6847L494.429 77.2514L464.62 37.1899H486.198L500.779 56.6847ZM516.229 77.3727L546.139 37.1899H524.622L505.471 62.8325L494.631 77.3727L494.389 77.6963L463.427 119.173H485.207L505.43 91.9332L516.29 77.3525L516.229 77.3727ZM525.815 119.194H547.433L517.625 79.1321L511.275 99.6988L525.815 119.194ZM80.9117 119.194V103.946H71.225V65.3199C71.225 55.3702 68.178 47.8743 62.0842 42.832C55.9904 37.7898 47.544 35.2754 36.745 35.2889C27.7256 35.2889 20.4049 36.8461 14.7222 39.9806C9.61244 42.5758 5.34235 46.5654 2.40653 51.4874L14.0144 61.3562C16.164 58.2469 18.9145 55.5996 22.1036 53.5704C25.9159 51.3851 30.2725 50.3328 34.662 50.537C40.3648 50.537 44.5105 51.8717 47.0586 54.5815C49.8064 57.8542 51.1703 62.069 50.8605 66.331V71.7305H36.4012C12.1337 71.7305 0 79.9949 0 96.5238C0 104.276 2.44022 110.343 7.32067 114.724C12.2011 119.106 18.8073 121.236 27.1391 121.115C32.7873 121.311 38.3693 119.848 43.1961 116.908C47.4774 114.188 50.5919 109.97 51.9323 105.078H52.7413C53.0073 108.996 54.6892 112.683 57.4734 115.452C60.6941 118.131 64.8206 119.47 69.0004 119.194H80.9117ZM23.863 104.572C22.6689 103.742 21.7061 102.621 21.0656 101.316C20.4251 100.01 20.1281 98.5627 20.2027 97.1102V93.9352C20.2027 86.9381 25.7707 83.4396 36.9067 83.4396H50.8808V94.4004C50.9292 96.2357 50.509 98.053 49.6597 99.6807C48.8105 101.308 47.5603 102.693 46.0272 103.703C42.4424 106.089 38.1968 107.285 33.8935 107.121C30.3956 107.297 26.9263 106.409 23.9439 104.572H23.863ZM131.732 119.194L161.217 37.1899H140.711L129.75 71.9934L120.528 102.186H119.416L110.194 71.9934L99.2336 37.1899H77.9389L107.343 119.194H131.732ZM215.212 119.194H143.36L149.063 103.298H169.852V53.085V37.1899H190.075V103.298H203.199C204.883 107.623 207.352 111.599 210.48 115.028C211.919 116.565 213.504 117.96 215.212 119.194ZM192.967 10.3339V14.156C192.988 15.5085 192.737 16.8515 192.23 18.1055C191.723 19.3595 190.97 20.499 190.014 21.4565C188.046 23.4788 184.675 24.4899 179.903 24.4899C175.15 24.4899 171.813 23.4788 169.791 21.4565C168.839 20.4973 168.09 19.357 167.586 18.1031C167.082 16.8492 166.835 15.5071 166.859 14.156V10.3339C166.835 8.98282 167.082 7.64069 167.586 6.38678C168.09 5.13287 168.839 3.99263 169.791 3.03343C171.813 1.01114 175.13 0 179.903 0C184.675 0 187.992 1.01114 190.014 3.03343C190.988 3.98247 191.76 5.11814 192.285 6.37252C192.809 7.6269 193.076 8.97422 193.068 10.3339H192.967ZM261.724 116.18C266.526 114.295 270.845 111.358 274.364 107.586C277.919 103.689 280.626 99.0957 282.311 94.097C286.032 82.5178 286.032 70.0638 282.311 58.4845C280.622 53.4819 277.916 48.8827 274.364 44.9757C270.844 41.2096 266.525 38.2798 261.724 36.4012C250.937 32.3843 239.064 32.3843 228.276 36.4012C223.513 38.3064 219.226 41.2333 215.717 44.9757C212.165 48.8827 209.46 53.4819 207.77 58.4845C204.078 70.0684 204.078 82.5132 207.77 94.097C209.455 99.0957 212.162 103.689 215.717 107.586C219.225 111.334 223.512 114.268 228.276 116.18C239.064 120.197 250.937 120.197 261.724 116.18ZM231.208 98.3034C227.838 94.7442 226.146 89.5267 226.132 82.6509V69.9307C226.132 63.0549 227.824 57.8374 231.208 54.2782C235.002 50.8548 239.93 48.9599 245.041 48.9599C250.151 48.9599 255.079 50.8548 258.873 54.2782C262.27 57.8374 263.949 63.0549 263.949 69.9307V82.6913C263.949 89.5671 262.27 94.8251 258.873 98.3438C255.079 101.767 250.151 103.662 245.041 103.662C239.93 103.662 235.002 101.767 231.208 98.3438V98.3034ZM313.92 119.194V64.2481C313.859 62.2478 314.326 60.2669 315.275 58.5048C316.183 56.9043 317.433 55.5234 318.935 54.4602C320.49 53.3314 322.237 52.4953 324.092 51.993C326.069 51.4567 328.11 51.1914 330.159 51.2043C340.432 51.2043 345.568 57.1498 345.568 69.0409V119.214H365.913V66.2703C365.913 56.3207 363.392 48.6697 358.349 43.3174C355.846 40.6473 352.801 38.5439 349.417 37.1487C346.034 35.7534 342.391 35.0986 338.733 35.2282C331.992 35.2282 326.775 36.8461 323.081 40.0817C319.403 43.1814 316.536 47.1311 314.729 51.5886H313.94V37.1899H293.636V119.194H313.92ZM378.087 119.194H450.606V103.298H425.53V37.1899H378.147V53.085H405.165V103.298H378.147L378.087 119.194ZM425.53 21.4565C426.481 20.4973 427.231 19.357 427.735 18.1031C428.239 16.8492 428.486 15.5071 428.462 14.156V10.3339C428.486 8.98282 428.239 7.64069 427.735 6.38678C427.231 5.13287 426.481 3.99263 425.53 3.03343C423.575 1.01114 420.204 0 415.418 0C410.632 0 407.262 1.01114 405.307 3.03343C404.351 3.99095 403.598 5.13043 403.091 6.38442C402.583 7.6384 402.333 8.9814 402.354 10.3339V14.156C402.333 15.5085 402.583 16.8515 403.091 18.1055C403.598 19.3595 404.351 20.499 405.307 21.4565C407.262 23.4788 410.632 24.4899 415.418 24.4899C420.204 24.4899 423.575 23.4788 425.53 21.4565Z" fill="#0F1034"/>
</svg>
