<svg width="85" height="50" viewBox="0 0 85 50" fill="none" xmlns="http://www.w3.org/2000/svg">
<path d="M35.3859 4.39547C31.9192 1.46515 27.0996 0 20.9272 0C15.7924 0 11.6108 0.911296 8.38241 2.73391C5.46905 4.24615 3.03445 6.57096 1.36058 9.43907L7.97885 15.1897C9.2001 13.3742 10.7691 11.8307 12.5909 10.6528C14.765 9.38065 17.2485 8.76754 19.7511 8.88521C23.018 8.88521 25.3739 9.67082 26.8191 11.242C28.2642 12.8133 28.9906 15.0954 28.9983 18.0886V21.235H20.7542C6.91807 21.235 0 26.0507 0 35.6823C0 40.1995 1.39133 43.7348 4.17393 46.288C6.95653 48.8412 10.7 50.1061 15.4042 50.0825C18.6245 50.1953 21.8066 49.3433 24.5592 47.6314C26.9971 46.0428 28.7719 43.5865 29.5402 40.7377H29.9898C30.1574 43.0344 31.1417 45.1889 32.7571 46.7947C33.0203 47.0453 33.306 47.2702 33.6103 47.4664L40.5976 37.8977V17.4994C40.5976 11.7016 38.8603 7.33364 35.3859 4.39547ZM28.9983 34.445C29.0259 35.5144 28.7863 36.5734 28.3021 37.5219C27.8179 38.4704 27.1051 39.277 26.231 39.8657C24.1865 41.2547 21.7663 41.9514 19.3129 41.8572C17.3066 41.9712 15.3144 41.4529 13.6056 40.3724C12.9223 39.8911 12.3715 39.2384 12.0061 38.4769C11.6406 37.7155 11.4728 36.8708 11.5186 36.024V34.1739C11.5186 30.0966 14.6894 28.058 21.031 28.058H29.0098L28.9983 34.445ZM58.3885 11.3599L54.768 23.3443L37.7727 0H50.0984L58.3885 11.3599ZM67.1975 23.415L61.0174 31.9114L49.4873 47.7964H37.0348L54.6874 23.6272L54.8257 23.4386L61.0058 14.9658L71.9249 0.0235733H84.2505L67.1975 23.4386V23.415ZM64.3726 36.3776L67.9931 24.3931L84.9885 47.7964H72.6628L64.3726 36.3776Z" fill="#F0EBE4"/>
</svg>
